<svg xmlns="http://www.w3.org/2000/svg" width="32" height="32" viewBox="0 0 32 32">
  <rect width="32" height="32" rx="8" fill="#1E4D8B" />
  <g transform="translate(4, 4)">
    <path fill="none" stroke="white" stroke-width="2" stroke-linecap="round" stroke-linejoin="round" d="M17.8 19.2 16 11l3.5-3.5C21 6 21.5 4 21 3c-1-.5-3 0-4.5 1.5L13 8 4.8 6.2c-.5-.1-.9.2-1.1.7l-1.2 3.6c-.1.4.1.9.5 1.1l5.4 2.3-3.6 3.6-2.5-.8c-.4-.1-.8.1-1 .5l-.5 1.5c-.1.3.1.7.4.8l4.4 1.4 1.4 4.4c.1.3.5.5.8.4l1.5-.5c.4-.2.6-.6.5-1l-.8-2.5 3.6-3.6 2.3 5.4c.2.4.7.6 1.1.5l3.6-1.2c.5-.2.8-.6.7-1.1z"/>
  </g>
</svg>
